<svg id="visual" viewBox="0 0 1920 1080" width="1920" height="1080" xmlns="http://www.w3.org/2000/svg" xmlns:xlink="http://www.w3.org/1999/xlink" version="1.1"><rect x="0" y="0" width="1920" height="1080" fill="#FFFFFF"></rect><path d="M0 721L45.7 736C91.3 751 182.7 781 274.2 790.3C365.7 799.7 457.3 788.3 548.8 772.7C640.3 757 731.7 737 823 733.8C914.3 730.7 1005.7 744.3 1097 740.7C1188.3 737 1279.7 716 1371.2 725.8C1462.7 735.7 1554.3 776.3 1645.8 791.2C1737.3 806 1828.7 795 1874.3 789.5L1920 784L1920 0L1874.3 0C1828.7 0 1737.3 0 1645.8 0C1554.3 0 1462.7 0 1371.2 0C1279.7 0 1188.3 0 1097 0C1005.7 0 914.3 0 823 0C731.7 0 640.3 0 548.8 0C457.3 0 365.7 0 274.2 0C182.7 0 91.3 0 45.7 0L0 0Z" fill="#1c5386"></path><path d="M0 563L45.7 562.3C91.3 561.7 182.7 560.3 274.2 567.8C365.7 575.3 457.3 591.7 548.8 591.7C640.3 591.7 731.7 575.3 823 584.3C914.3 593.3 1005.7 627.7 1097 634.3C1188.3 641 1279.7 620 1371.2 605.5C1462.7 591 1554.3 583 1645.8 592.2C1737.3 601.3 1828.7 627.7 1874.3 640.8L1920 654L1920 0L1874.3 0C1828.7 0 1737.3 0 1645.8 0C1554.3 0 1462.7 0 1371.2 0C1279.7 0 1188.3 0 1097 0C1005.7 0 914.3 0 823 0C731.7 0 640.3 0 548.8 0C457.3 0 365.7 0 274.2 0C182.7 0 91.3 0 45.7 0L0 0Z" fill="#234f78"></path><path d="M0 442L45.7 438.8C91.3 435.7 182.7 429.3 274.2 432.7C365.7 436 457.3 449 548.8 451.8C640.3 454.7 731.7 447.3 823 451.2C914.3 455 1005.7 470 1097 470.3C1188.3 470.7 1279.7 456.3 1371.2 446.7C1462.7 437 1554.3 432 1645.8 440.2C1737.3 448.3 1828.7 469.7 1874.3 480.3L1920 491L1920 0L1874.3 0C1828.7 0 1737.3 0 1645.8 0C1554.3 0 1462.7 0 1371.2 0C1279.7 0 1188.3 0 1097 0C1005.7 0 914.3 0 823 0C731.7 0 640.3 0 548.8 0C457.3 0 365.7 0 274.2 0C182.7 0 91.3 0 45.7 0L0 0Z" fill="#284a6b"></path><path d="M0 340L45.7 330.3C91.3 320.7 182.7 301.3 274.2 305.2C365.7 309 457.3 336 548.8 338C640.3 340 731.7 317 823 312.5C914.3 308 1005.7 322 1097 327C1188.3 332 1279.7 328 1371.2 331.3C1462.7 334.7 1554.3 345.3 1645.8 341.8C1737.3 338.3 1828.7 320.7 1874.3 311.8L1920 303L1920 0L1874.3 0C1828.7 0 1737.3 0 1645.8 0C1554.3 0 1462.7 0 1371.2 0C1279.7 0 1188.3 0 1097 0C1005.7 0 914.3 0 823 0C731.7 0 640.3 0 548.8 0C457.3 0 365.7 0 274.2 0C182.7 0 91.3 0 45.7 0L0 0Z" fill="#2d465d"></path><path d="M0 155L45.7 163.2C91.3 171.3 182.7 187.7 274.2 189.5C365.7 191.3 457.3 178.7 548.8 177.8C640.3 177 731.7 188 823 192.8C914.3 197.7 1005.7 196.3 1097 187.5C1188.3 178.7 1279.7 162.3 1371.2 154.7C1462.7 147 1554.3 148 1645.8 150.8C1737.3 153.7 1828.7 158.3 1874.3 160.7L1920 163L1920 0L1874.3 0C1828.7 0 1737.3 0 1645.8 0C1554.3 0 1462.7 0 1371.2 0C1279.7 0 1188.3 0 1097 0C1005.7 0 914.3 0 823 0C731.7 0 640.3 0 548.8 0C457.3 0 365.7 0 274.2 0C182.7 0 91.3 0 45.7 0L0 0Z" fill="#314150"></path></svg>