<?xml version="1.0"?>
<svg width="1920" height="1080" xmlns="http://www.w3.org/2000/svg" xmlns:svg="http://www.w3.org/2000/svg" version="1.1">
 <g class="layer">
  <title>Layer 1</title>
  <g id="svg_7">
   <rect fill="#FFFFFF" height="802" id="svg_1" style="--darkreader-inline-fill:#181a1b;" width="1920" x="0" y="0"/>
   <path d="m0,721l45.7,15c45.6,15 137,45 228.5,54.3c91.5,9.4 183.1,-2 274.6,-17.6c91.5,-15.7 182.9,-35.7 274.2,-38.9c91.3,-3.1 182.7,10.5 274,6.9c91.3,-3.7 182.7,-24.7 274.2,-14.9c91.5,9.9 183.1,50.5 274.6,65.4c91.5,14.8 182.9,3.8 228.5,-1.7l45.7,-5.5l0,-784l-45.7,0c-45.6,0 -137,0 -228.5,0c-91.5,0 -183.1,0 -274.6,0c-91.5,0 -182.9,0 -274.2,0c-91.3,0 -182.7,0 -274,0c-91.3,0 -182.7,0 -274.2,0c-91.5,0 -183.1,0 -274.6,0c-91.5,0 -182.9,0 -228.5,0l-45.7,0l0,721z" fill="#1c5386" id="svg_2" style="--darkreader-inline-fill:#16426b;"/>
   <path d="m0,563l45.7,-0.7c45.6,-0.6 137,-2 228.5,5.5c91.5,7.5 183.1,23.9 274.6,23.9c91.5,0 182.9,-16.4 274.2,-7.4c91.3,9 182.7,43.4 274,50c91.3,6.7 182.7,-14.3 274.2,-28.8c91.5,-14.5 183.1,-22.5 274.6,-13.3c91.5,9.1 182.9,35.5 228.5,48.6l45.7,13.2l0,-654l-45.7,0c-45.6,0 -137,0 -228.5,0c-91.5,0 -183.1,0 -274.6,0c-91.5,0 -182.9,0 -274.2,0c-91.3,0 -182.7,0 -274,0c-91.3,0 -182.7,0 -274.2,0c-91.5,0 -183.1,0 -274.6,0c-91.5,0 -182.9,0 -228.5,0l-45.7,0l0,563z" fill="#234f78" id="svg_3" style="--darkreader-inline-fill:#1c3f60;"/>
   <path d="m0,442l45.7,-3.2c45.6,-3.1 137,-9.5 228.5,-6.1c91.5,3.3 183.1,16.3 274.6,19.1c91.5,2.9 182.9,-4.5 274.2,-0.6c91.3,3.8 182.7,18.8 274,19.1c91.3,0.4 182.7,-14 274.2,-23.6c91.5,-9.7 183.1,-14.7 274.6,-6.5c91.5,8.1 182.9,29.5 228.5,40.1l45.7,10.7l0,-491l-45.7,0c-45.6,0 -137,0 -228.5,0c-91.5,0 -183.1,0 -274.6,0c-91.5,0 -182.9,0 -274.2,0c-91.3,0 -182.7,0 -274,0c-91.3,0 -182.7,0 -274.2,0c-91.5,0 -183.1,0 -274.6,0c-91.5,0 -182.9,0 -228.5,0l-45.7,0l0,442z" fill="#284a6b" id="svg_4" style="--darkreader-inline-fill:#203b56;"/>
   <path d="m0,340l45.7,-9.7c45.6,-9.6 137,-29 228.5,-25.1c91.5,3.8 183.1,30.8 274.6,32.8c91.5,2 182.9,-21 274.2,-25.5c91.3,-4.5 182.7,9.5 274,14.5c91.3,5 182.7,1 274.2,4.3c91.5,3.4 183.1,14 274.6,10.5c91.5,-3.5 182.9,-21.1 228.5,-30l45.7,-8.8l0,-303l-45.7,0c-45.6,0 -137,0 -228.5,0c-91.5,0 -183.1,0 -274.6,0c-91.5,0 -182.9,0 -274.2,0c-91.3,0 -182.7,0 -274,0c-91.3,0 -182.7,0 -274.2,0c-91.5,0 -183.1,0 -274.6,0c-91.5,0 -182.9,0 -228.5,0l-45.7,0l0,340z" fill="#2d465d" id="svg_5" style="--darkreader-inline-fill:#24384a;"/>
   <path d="m0,155l45.7,8.2c45.6,8.1 137,24.5 228.5,26.3c91.5,1.8 183.1,-10.8 274.6,-11.7c91.5,-0.8 182.9,10.2 274.2,15c91.3,4.9 182.7,3.5 274,-5.3c91.3,-8.8 182.7,-25.2 274.2,-32.8c91.5,-7.7 183.1,-6.7 274.6,-3.9c91.5,2.9 182.9,7.5 228.5,9.9l45.7,2.3l0,-163l-45.7,0c-45.6,0 -137,0 -228.5,0c-91.5,0 -183.1,0 -274.6,0c-91.5,0 -182.9,0 -274.2,0c-91.3,0 -182.7,0 -274,0c-91.3,0 -182.7,0 -274.2,0c-91.5,0 -183.1,0 -274.6,0c-91.5,0 -182.9,0 -228.5,0l-45.7,0l0,155z" fill="#314150" id="svg_6" style="--darkreader-inline-fill:#273440;"/>
  </g>
 </g>
</svg>